<svg width="136" height="32" viewBox="0 0 136 32" fill="none" xmlns="http://www.w3.org/2000/svg">
<g clip-path="url(#clip0_621_1048)">
<path d="M0 0.300903H5.26753L7.16214 10.1805L9.93609 0.300903H15.1824L17.9648 10.168L19.8637 0.300903H25.1015L21.1466 17.9496H15.7091L12.5614 6.83714L9.42633 17.9496H3.98888L0 0.300903Z" fill="#231F20"/>
<path d="M26.8984 0.300903H41.7537V4.07053H32.4548V6.87476H41.0825V10.473H32.4548V13.9543H42.0256V17.9496H26.8984V0.300903Z" fill="#231F20"/>
<path d="M44.043 12.1113L49.319 11.7853C49.4337 12.6295 49.6673 13.2689 50.0157 13.7119C50.5849 14.4266 51.4005 14.7818 52.4625 14.7818C53.2527 14.7818 53.8644 14.5979 54.2934 14.2343C54.7225 13.8707 54.9349 13.4445 54.9349 12.9639C54.9349 12.4832 54.731 12.0988 54.3231 11.7352C53.9153 11.3758 52.968 11.0331 51.4855 10.7113C49.0556 10.1722 47.3224 9.45752 46.2859 8.56735C45.2409 7.67719 44.7184 6.54045 44.7184 5.16132C44.7184 4.25444 44.986 3.3977 45.5213 2.59112C46.0565 1.78454 46.8594 1.1493 47.9341 0.689594C49.0046 0.229884 50.4787 -0.00415039 52.3478 -0.00415039C54.6418 -0.00415039 56.3877 0.413768 57.5899 1.25378C58.7921 2.0938 59.51 3.42696 59.7394 5.25744L54.5143 5.55834C54.3741 4.7643 54.0853 4.18757 53.6392 3.82398C53.1932 3.46457 52.5815 3.28069 51.7956 3.28069C51.1499 3.28069 50.6656 3.41442 50.3385 3.68189C50.0114 3.94936 49.85 4.27951 49.85 4.664C49.85 4.944 49.9859 5.19893 50.2536 5.42043C50.5127 5.65446 51.1329 5.87178 52.1142 6.07238C54.5356 6.58642 56.273 7.10464 57.3222 7.63122C58.3715 8.15779 59.1319 8.80975 59.6119 9.58707C60.0877 10.3644 60.3298 11.2379 60.3298 12.1991C60.3298 13.3316 60.0112 14.3764 59.374 15.3293C58.7368 16.2863 57.849 17.0093 56.7063 17.5024C55.5636 17.9956 54.1235 18.2422 52.3861 18.2422C49.336 18.2422 47.2205 17.6654 46.048 16.5078C44.8756 15.3502 44.2086 13.8833 44.0515 12.1029L44.043 12.1113Z" fill="#231F20"/>
<path d="M61.8506 0.300903H78.7024V4.65979H73.0483V17.9496H67.5047V4.65979H61.8506V0.300903Z" fill="#231F20"/>
<path d="M81.2012 0.300903H96.0565V4.07053H86.7576V6.87476H95.3853V10.473H86.7576V13.9543H96.3283V17.9496H81.2012V0.300903Z" fill="#231F20"/>
<path d="M99.3818 17.9496V0.300903H108.621C110.333 0.300903 111.646 0.447175 112.551 0.735538C113.455 1.0239 114.186 1.55884 114.743 2.34452C115.299 3.12603 115.575 4.07888 115.575 5.20308C115.575 6.18101 115.363 7.02521 114.938 7.73567C114.513 8.44613 113.931 9.02286 113.188 9.46167C112.712 9.74168 112.066 9.97571 111.242 10.1596C111.901 10.3769 112.385 10.5942 112.687 10.8115C112.89 10.9578 113.188 11.2671 113.574 11.7393C113.961 12.2116 114.22 12.5793 114.352 12.8343L117.037 17.9496H110.771L107.806 12.5543C107.432 11.8563 107.096 11.4008 106.803 11.1919C106.404 10.9202 105.949 10.7823 105.444 10.7823H104.955V17.9454H99.3861L99.3818 17.9496ZM104.951 7.45148H107.287C107.538 7.45148 108.031 7.37208 108.757 7.20909C109.123 7.13805 109.424 6.95416 109.658 6.65326C109.891 6.35654 110.006 6.01385 110.006 5.62936C110.006 5.06099 109.823 4.62218 109.454 4.3171C109.089 4.01202 108.396 3.86157 107.385 3.86157H104.951V7.44731V7.45148Z" fill="#231F20"/>
<path d="M118.843 0.300903H124.021L130.775 10.0677V0.300903H136V17.9496H130.775L124.055 8.25807V17.9496H118.843V0.300903Z" fill="#231F20"/>
<path d="M28.4872 23.6083H29.3665L33.16 31.858H32.149L31.1719 29.6932H26.6393L25.6538 31.858H24.6895L28.4829 23.6083H28.4872ZM30.8066 28.8531L28.9162 24.6865L27.0131 28.8531H30.8066Z" fill="#231F20"/>
<path d="M35.0882 28.431V23.6667H36.027V28.3725C36.027 30.1403 36.9913 31.1349 38.5716 31.1349C40.1519 31.1349 41.0822 30.2239 41.0822 28.431V23.6667H42.021V28.36C42.021 30.7463 40.6276 31.9875 38.5461 31.9875C36.4646 31.9875 35.084 30.7463 35.084 28.431H35.0882Z" fill="#231F20"/>
<path d="M47.1614 24.5235H44.3662V23.6709H50.9081V24.5235H48.113V31.8621H47.1614V24.5235Z" fill="#231F20"/>
<path d="M52.4414 27.7874V27.7623C52.4414 25.5056 54.1661 23.5247 56.6979 23.5247C59.2297 23.5247 60.9332 25.4805 60.9332 27.7373V27.7623C60.9332 30.0191 59.2085 32 56.6767 32C54.1449 32 52.4414 30.0442 52.4414 27.7874ZM59.9604 27.7874V27.7623C59.9604 25.9026 58.5798 24.3814 56.6767 24.3814C54.7736 24.3814 53.4184 25.8775 53.4184 27.7415V27.7665C53.4184 29.6263 54.7991 31.1475 56.7022 31.1475C58.6053 31.1475 59.9604 29.6513 59.9604 27.7874Z" fill="#231F20"/>
<path d="M67.5479 27.7874V27.7623C67.5479 25.5139 69.2258 23.5247 71.7236 23.5247C73.1255 23.5247 73.9963 23.9217 74.8289 24.6112L74.2215 25.3133C73.58 24.7617 72.8664 24.3772 71.6897 24.3772C69.846 24.3772 68.5249 25.911 68.5249 27.7373V27.7623C68.5249 29.7182 69.7993 31.1684 71.8214 31.1684C72.7729 31.1684 73.6522 30.8048 74.2257 30.3493V28.314H71.6939V27.4823H75.1305V30.7463C74.3574 31.4233 73.1935 32 71.7874 32C69.1706 32 67.5521 30.1278 67.5521 27.7874H67.5479Z" fill="#231F20"/>
<path d="M77.9551 23.6667H81.5362C82.5599 23.6667 83.3798 23.9718 83.9023 24.4859C84.3059 24.8829 84.5437 25.4554 84.5437 26.099V26.1241C84.5437 27.4823 83.5922 28.2764 82.2838 28.5104L84.8411 31.8579H83.6856L81.2728 28.6734H78.8939V31.8579H77.9551V23.6667ZM81.4512 27.8459C82.7001 27.8459 83.5922 27.2149 83.5922 26.1617V26.1366C83.5922 25.1295 82.8063 24.5235 81.4639 24.5235H78.8939V27.8459H81.4512Z" fill="#231F20"/>
<path d="M86.9014 27.7874V27.7623C86.9014 25.5056 88.6261 23.5247 91.1579 23.5247C93.6897 23.5247 95.3931 25.4805 95.3931 27.7373V27.7623C95.3931 30.0191 93.6684 32 91.1366 32C88.6048 32 86.9014 30.0442 86.9014 27.7874ZM94.4161 27.7874V27.7623C94.4161 25.9026 93.0355 24.3814 91.1324 24.3814C89.2293 24.3814 87.8742 25.8775 87.8742 27.7415V27.7665C87.8742 29.6263 89.2548 31.1475 91.1579 31.1475C93.061 31.1475 94.4161 29.6513 94.4161 27.7874Z" fill="#231F20"/>
<path d="M97.9632 28.431V23.6667H98.902V28.3725C98.902 30.1403 99.8663 31.1349 101.447 31.1349C103.027 31.1349 103.957 30.2239 103.957 28.431V23.6667H104.896V28.36C104.896 30.7463 103.503 31.9875 101.421 31.9875C99.3396 31.9875 97.959 30.7463 97.959 28.431H97.9632Z" fill="#231F20"/>
<path d="M107.836 23.6667H110.954C112.832 23.6667 114.072 24.6489 114.072 26.2662V26.2913C114.072 28.0591 112.572 28.9701 110.801 28.9701H108.779V31.8621H107.84V23.6709L107.836 23.6667ZM110.831 28.1259C112.211 28.1259 113.116 27.3988 113.116 26.3247V26.2996C113.116 25.1295 112.224 24.5193 110.882 24.5193H108.775V28.1218H110.831V28.1259Z" fill="#231F20"/>
</g>
<defs>
<clipPath id="clip0_621_1048">
<rect width="136" height="32" fill="white"/>
</clipPath>
</defs>
</svg>
