<svg width="16" height="24" viewBox="0 0 16 24" fill="none" xmlns="http://www.w3.org/2000/svg">
<path d="M7.31056 2.47094C7.46096 2.6382 7.42469 2.99523 7.42469 2.99523C7.32029 4.92763 6.72974 6.7023 5.64905 7.83099C5.18856 8.31221 4.66038 8.70981 4.15476 9.13445C4.06408 9.21056 3.92606 9.31322 3.84865 9.39534C3.8398 9.40435 3.8221 9.40686 3.82697 9.42689C4.89217 10.3047 5.98923 11.1199 6.66427 12.3988C8.00241 14.9352 7.59854 19.2431 5.12928 20.8676C4.4131 21.3808 3.25588 21.5731 3.25588 21.5731C2.72859 21.6648 2.86661 21.1084 2.86661 21.1084C2.86661 21.1084 2.94667 20.7859 3.03514 20.4154C3.12362 20.0443 3.466 19.9442 3.466 19.9442C4.58075 19.6522 5.28764 18.8991 5.67515 17.7639C5.83175 17.3052 5.93261 16.8 5.95561 16.3117C4.95941 15.9707 3.92783 15.6572 3.0232 15.0849C1.5236 14.1345 0.878194 12.7899 1.24226 10.9201C1.34754 10.3798 1.55899 9.86905 1.85006 9.41537C1.47184 8.84201 1.24314 8.15948 1.17192 7.46144C0.900312 4.79794 2.76265 3.66424 4.8214 2.91161C5.21333 2.76839 6.20156 2.47245 6.60323 2.36879C7.00489 2.26514 7.146 2.28767 7.311 2.47094H7.31056ZM2.89757 8.24662C3.01789 8.15748 3.15016 8.01977 3.27004 7.91962C3.89598 7.39634 4.56262 6.9056 5.0585 6.23359C5.50263 5.63119 5.78132 4.92463 5.89279 4.16699C5.08018 4.44741 4.19944 4.72333 3.4952 5.25312C2.72063 5.836 2.46671 6.47345 2.62508 7.48497C2.66754 7.75638 2.7569 8.01176 2.86528 8.25963C2.88474 8.26514 2.88651 8.25413 2.89757 8.24611V8.24662ZM2.62508 11.3543C2.45432 12.4469 2.78388 13.1024 3.63587 13.6823C4.3202 14.148 5.12441 14.4074 5.89235 14.6728C5.81052 14.1244 5.6433 13.5881 5.38143 13.1084C4.85369 12.141 3.99993 11.5275 3.19263 10.852C3.0984 10.7734 2.99224 10.6617 2.89713 10.5931C2.88651 10.5856 2.88474 10.5736 2.86528 10.5796C2.75513 10.826 2.66754 11.0834 2.62508 11.3543Z" fill="url(#paint0_linear_5122_2881)"/>
<path d="M9.11097 2.36951C9.51264 2.47316 10.5004 2.7686 10.8928 2.91232C12.9515 3.66494 14.8139 4.79863 14.5423 7.4626C14.4711 8.16014 14.2424 8.84315 13.8641 9.41651C14.1552 9.87069 14.3667 10.3814 14.4719 10.9213C14.836 12.791 14.1906 14.1355 12.691 15.085C11.7868 15.6573 10.7552 15.9708 9.75859 16.3118C9.78203 16.7995 9.88289 17.3053 10.039 17.7639C10.4266 18.8991 11.1334 19.6523 12.2482 19.9442C12.2482 19.9442 12.5906 20.0443 12.6791 20.4154C12.7675 20.7864 12.8476 21.1084 12.8476 21.1084C12.8476 21.1084 12.9856 21.6648 12.4583 21.5731C12.4583 21.5731 11.3007 21.3808 10.5849 20.8676C8.11566 19.2432 7.71179 14.9352 9.04993 12.399C9.72497 11.1195 10.822 10.3048 11.8872 9.42702C11.8921 9.40699 11.874 9.40449 11.8656 9.39548C11.7881 9.31285 11.6501 9.2107 11.5594 9.13459C11.0543 8.71046 10.5261 8.31236 10.0651 7.83115C8.98446 6.70297 8.39391 4.92782 8.28951 2.99544C8.28951 2.99544 8.25323 2.63841 8.40364 2.47116C8.56864 2.28789 8.70665 2.26485 9.11141 2.36901L9.11097 2.36951ZM12.8485 8.26079C12.9569 8.01292 13.0462 7.75754 13.0887 7.48613C13.247 6.47412 12.9931 5.83668 12.2186 5.25431C11.5148 4.72452 10.6336 4.44861 9.82096 4.16819C9.93244 4.92582 10.2111 5.63237 10.6553 6.23477C11.1511 6.90727 11.8178 7.398 12.4437 7.92078C12.5636 8.02093 12.6959 8.15863 12.8162 8.24777C12.8272 8.25578 12.829 8.2668 12.8485 8.26129V8.26079ZM12.8485 10.5802C12.8286 10.5742 12.8272 10.5863 12.8166 10.5938C12.7215 10.6619 12.6154 10.7735 12.5211 10.8526C11.7138 11.5277 10.8601 12.1411 10.3323 13.109C10.0705 13.5892 9.90324 14.1255 9.8214 14.6733C10.5893 14.4084 11.3936 14.1491 12.0779 13.6829C12.9299 13.103 13.2599 12.4475 13.0887 11.3549C13.0462 11.084 12.9586 10.8266 12.8485 10.5802Z" fill="url(#paint1_linear_5122_2881)"/>
<defs>
<linearGradient id="paint0_linear_5122_2881" x1="4.2857" y1="1.85702" x2="4.2857" y2="14.9191" gradientUnits="userSpaceOnUse">
<stop stop-color="#0554EF"/>
<stop offset="1" stop-color="#8937E2"/>
</linearGradient>
<linearGradient id="paint1_linear_5122_2881" x1="11.4281" y1="1.85775" x2="11.4281" y2="14.9197" gradientUnits="userSpaceOnUse">
<stop stop-color="#0554EF"/>
<stop offset="1" stop-color="#8937E2"/>
</linearGradient>
</defs>
</svg>
