<svg width="32" height="32" viewBox="0 0 32 32" fill="none" xmlns="http://www.w3.org/2000/svg">
<g clip-path="url(#clip0_6067_11254)">
<path fill-rule="evenodd" clip-rule="evenodd" d="M31.9999 16.0003C31.9999 7.25582 24.9111 0.166992 16.1666 0.166992C7.42208 0.166993 0.333252 7.25582 0.333252 16.0003C0.333252 24.7448 7.42208 31.8337 16.1666 31.8337C24.9111 31.8337 31.9999 24.7448 31.9999 16.0003ZM10.5769 15.2567C10.1131 14.7929 10.1131 14.041 10.5769 13.5773L15.3269 8.8273C15.7906 8.36355 16.5425 8.36355 17.0063 8.8273L21.7563 13.5773C22.22 14.041 22.22 14.7929 21.7563 15.2567C21.2925 15.7204 20.5406 15.7204 20.0769 15.2567L17.3541 12.5339V22.3337C17.3541 22.9895 16.8224 23.5212 16.1666 23.5212C15.5107 23.5212 14.9791 22.9895 14.9791 22.3337V12.5339L12.2563 15.2567C11.7925 15.7204 11.0406 15.7204 10.5769 15.2567Z" fill="url(#paint0_radial_6067_11254)"/>
</g>
<defs>
<radialGradient id="paint0_radial_6067_11254" cx="0" cy="0" r="1" gradientUnits="userSpaceOnUse" gradientTransform="translate(-5.33324 14) rotate(45) scale(36.0624 84.7626)">
<stop stop-color="#0554EF"/>
<stop offset="1" stop-color="#8937E2"/>
</radialGradient>
<clipPath id="clip0_6067_11254">
<rect x="0.333374" width="31.6667" height="32" rx="15.8333" fill="white"/>
</clipPath>
</defs>
</svg>
