<svg width="262" height="19" viewBox="0 0 262 19" fill="none" xmlns="http://www.w3.org/2000/svg">
<path d="M0.0848554 17.8111L12.1674 1.96548C12.8046 1.13058 14.103 0.640137 15.167 0.640137C16.231 0.640137 17.5354 1.13058 18.1666 1.96548L30.2492 17.8111C30.4656 18.0913 30.2552 18.4883 29.8945 18.4883H27.6523C26.913 18.4883 26.2157 18.1497 25.7768 17.5717L15.4015 3.96223C15.2812 3.81043 15.0468 3.81043 14.9326 3.96223L4.55721 17.5717C4.11839 18.1497 3.42108 18.4883 2.6817 18.4883H0.439516C0.078842 18.4883 -0.125538 18.0913 0.0848554 17.8111Z" fill="white"/>
<path d="M66.5751 1.56262C66.5751 1.84871 66.4429 2.11143 66.2085 2.28659L56.8189 9.35114C56.6686 9.4679 56.6686 9.68392 56.8189 9.80069L66.2085 16.8302C66.4369 17.0054 66.5751 17.2739 66.5751 17.56V17.5775C66.5751 18.0855 66.1544 18.5 65.6314 18.5H64.363C63.5876 18.5 62.8362 18.249 62.223 17.7936L54.5767 12.0719C53.9636 11.6106 53.2122 11.3654 52.4367 11.3654H50.0984C49.3229 11.3654 48.5715 11.6165 47.9584 12.0719L40.3121 17.7936C39.6989 18.2548 38.9475 18.5 38.1721 18.5H36.9037C36.3808 18.5 35.96 18.0855 35.96 17.5775V17.56C35.96 17.2739 36.0982 17.0054 36.3266 16.8302L45.7162 9.80069C45.8665 9.68392 45.8665 9.4679 45.7162 9.35114L36.3266 2.28659C36.0922 2.11143 35.96 1.84286 35.96 1.55678C35.96 1.04883 36.3868 0.640137 36.9097 0.640137C37.4327 0.640137 37.8715 0.640137 38.2022 0.640137C38.9776 0.640137 39.723 0.891191 40.3361 1.35243L47.9343 7.06829C48.5475 7.52953 49.3049 7.78059 50.0803 7.78059H52.4668C53.2422 7.78059 53.9997 7.52953 54.6128 7.06829L62.211 1.35243C62.8241 0.891191 63.5695 0.640137 64.345 0.640137C64.6756 0.640137 65.0964 0.640137 65.6374 0.640137C66.1784 0.640137 66.5872 1.05468 66.5872 1.56262H66.5751Z" fill="white"/>
<path d="M79.475 4.20745C76.6678 4.20745 74.3895 6.42022 74.3895 9.14679V9.98168C74.3895 12.7082 76.6617 14.921 79.475 14.921H99.8591C100.827 14.921 101.614 15.68 101.614 16.6259V17.9278C101.614 18.2431 101.356 18.4942 101.031 18.4942H79.7575C74.9185 18.4942 70.9932 14.6816 70.9932 9.98168V9.15263C70.9932 4.45266 74.9185 0.640137 79.7575 0.640137H101.031C101.356 0.640137 101.614 0.891191 101.614 1.20647V2.50845C101.614 3.44845 100.833 4.20745 99.8591 4.20745H79.475ZM77.7979 9.48543C77.7979 8.54543 78.5793 7.78059 79.5531 7.78059H97.6289C97.9535 7.78059 98.212 8.03164 98.212 8.34692V9.36281C98.212 10.3028 97.4305 11.0618 96.4567 11.0618H79.4269C78.5252 11.0618 77.7979 10.3554 77.7979 9.47958V9.48543Z" fill="white"/>
<path d="M118.091 14.9211H135.073C136.041 14.9211 136.828 15.68 136.828 16.6259V17.9279C136.828 18.2431 136.564 18.4942 136.245 18.4942H118.374C113.535 18.4942 109.609 14.6817 109.609 9.9817V1.21233C109.609 0.897051 109.868 0.645996 110.192 0.645996H111.256C112.224 0.645996 113.012 1.405 113.012 2.35084V9.99339C113.012 12.7199 115.29 14.9327 118.097 14.9327L118.091 14.9211Z" fill="white"/>
<path d="M164.883 0.640137H177.975C182.814 0.640137 186.739 4.45266 186.739 9.15263V9.98168C186.739 14.6816 182.814 18.4942 177.975 18.4942H164.883C160.044 18.4942 156.118 14.6816 156.118 9.98168V9.15263C156.118 4.45266 160.044 0.640137 164.883 0.640137ZM183.337 9.98168V9.14679C183.337 6.42022 181.065 4.20745 178.258 4.20745H164.606C161.799 4.20745 159.521 6.42022 159.521 9.14679V9.98168C159.521 12.7082 161.793 14.921 164.606 14.921H178.258C181.065 14.921 183.337 12.7082 183.337 9.98168Z" fill="white"/>
<path d="M223.192 0.640104H224.256C224.58 0.640104 224.839 0.891158 224.839 1.20644V16.7893C224.839 17.7293 224.057 18.4941 223.09 18.4941H221.418C220.823 18.4825 220.246 18.3073 219.753 17.992C215.906 15.5282 202.17 6.73546 198.071 4.10815C197.878 3.98555 197.62 4.11984 197.62 4.34171V16.7893C197.62 17.7293 196.839 18.4941 195.871 18.4941H194.807C194.482 18.4941 194.224 18.2431 194.224 17.9278V2.34494C194.224 1.40495 195.005 0.640104 195.973 0.640104H197.548C198.167 0.640104 198.774 0.815273 199.291 1.14807L220.986 15.0378C221.178 15.1604 221.436 15.0261 221.436 14.7984V2.3391C221.436 1.39911 222.224 0.634277 223.186 0.634277L223.192 0.640104Z" fill="white"/>
<path d="M239.861 4.06731C237.053 4.06731 234.775 6.28009 234.775 9.00665V9.84155C234.775 12.5681 237.047 14.7809 239.861 14.7809H260.245C261.213 14.7809 262 15.5399 262 16.4857V17.7877C262 18.103 261.742 18.354 261.417 18.354H240.143C235.304 18.354 231.379 14.5415 231.379 9.84155V9.01249C231.379 4.31253 235.304 0.5 240.143 0.5H261.417C261.742 0.5 262 0.751055 262 1.06633V2.36832C262 3.30831 261.219 4.06731 260.245 4.06731H239.861ZM238.184 9.33945C238.184 8.39945 238.965 7.63461 239.939 7.63461H258.015C258.339 7.63461 258.598 7.88566 258.598 8.20094V9.21682C258.598 10.1568 257.816 10.9158 256.842 10.9158H239.813C238.911 10.9158 238.184 10.2094 238.184 9.3336V9.33945Z" fill="white"/>
</svg>
