<svg width="200" height="14" viewBox="0 0 200 14" fill="none" xmlns="http://www.w3.org/2000/svg">
<g clip-path="url(#clip0_621_1084)">
<path d="M0.0637984 13.4731L9.29174 1.14016C9.77815 0.490579 10.7693 0.109009 11.5815 0.109009C12.3937 0.109009 13.3895 0.490579 13.8713 1.14016L23.0947 13.4685C23.2599 13.6866 23.0992 13.9954 22.8239 13.9954H21.1123C20.5479 13.9954 20.0156 13.732 19.6806 13.2823L11.7605 2.69824C11.6687 2.58013 11.4897 2.58013 11.4026 2.69824L3.48241 13.2823C3.14743 13.732 2.61513 13.9954 2.05072 13.9954H0.334534C0.0592097 13.9954 -0.0968073 13.6866 0.0637984 13.4685V13.4731Z" fill="black"/>
<path d="M50.8206 0.826725C50.8206 1.04931 50.7197 1.25372 50.5407 1.39L43.3731 6.88643C43.2584 6.97728 43.2584 7.14535 43.3731 7.2362L50.5407 12.7054C50.7151 12.8417 50.8206 13.0506 50.8206 13.2732V13.2868C50.8206 13.682 50.4994 14.0045 50.1002 14.0045H49.132C48.54 14.0045 47.9664 13.8092 47.4984 13.4549L41.6615 9.00323C41.1935 8.64438 40.6199 8.45359 40.0279 8.45359H38.2429C37.651 8.45359 37.0774 8.64892 36.6093 9.00323L30.7724 13.4549C30.3044 13.8137 29.7308 14.0045 29.1388 14.0045H28.1706C27.7714 14.0045 27.4502 13.682 27.4502 13.2868V13.2732C27.4502 13.0506 27.5557 12.8417 27.7301 12.7054L34.8977 7.2362C35.0124 7.14535 35.0124 6.97728 34.8977 6.88643L27.7301 1.39C27.5511 1.25372 27.4502 1.04476 27.4502 0.822182C27.4502 0.426984 27.776 0.109009 28.1752 0.109009C28.5744 0.109009 28.9094 0.109009 29.1618 0.109009C29.7537 0.109009 30.3227 0.304337 30.7908 0.663194L36.591 5.11031C37.059 5.46916 37.6372 5.66449 38.2291 5.66449H40.0509C40.6428 5.66449 41.221 5.46916 41.689 5.11031L47.4892 0.663194C47.9572 0.304337 48.5263 0.109009 49.1182 0.109009C49.3706 0.109009 49.6918 0.109009 50.1048 0.109009C50.5178 0.109009 50.8298 0.431527 50.8298 0.826725H50.8206Z" fill="#0554EF"/>
<path d="M60.6681 2.889C58.5251 2.889 56.786 4.61061 56.786 6.73196V7.38153C56.786 9.50288 58.5205 11.2245 60.6681 11.2245H76.2285C76.9673 11.2245 77.5684 11.815 77.5684 12.5509V13.5639C77.5684 13.8092 77.3711 14.0045 77.1233 14.0045H60.8837C57.1898 14.0045 54.1934 11.0382 54.1934 7.38153V6.7365C54.1934 3.07978 57.1898 0.113525 60.8837 0.113525H77.1233C77.3711 0.113525 77.5684 0.308853 77.5684 0.554148V1.56713C77.5684 2.29847 76.9718 2.889 76.2285 2.889H60.6681ZM59.3878 6.99088C59.3878 6.25953 59.9843 5.66447 60.7277 5.66447H74.526C74.7738 5.66447 74.9712 5.85979 74.9712 6.10509V6.89549C74.9712 7.62683 74.3746 8.21735 73.6312 8.21735H60.6314C59.943 8.21735 59.3878 7.66771 59.3878 6.98634V6.99088Z" fill="black"/>
<path d="M90.1456 11.22H103.109C103.848 11.22 104.449 11.8105 104.449 12.5464V13.5594C104.449 13.8047 104.247 14 104.004 14H90.3613C86.6673 14 83.6709 11.0337 83.6709 7.37702V0.549632C83.6709 0.304337 83.8682 0.109009 84.116 0.109009H84.9282C85.667 0.109009 86.2681 0.699534 86.2681 1.43542V7.38156C86.2681 9.50291 88.0073 11.2245 90.1502 11.2245L90.1456 11.22Z" fill="black"/>
<path d="M125.864 0.109009H135.858C139.552 0.109009 142.549 3.07526 142.549 6.73198V7.37702C142.549 11.0337 139.552 14 135.858 14H125.864C122.17 14 119.174 11.0337 119.174 7.37702V6.73198C119.174 3.07526 122.17 0.109009 125.864 0.109009ZM139.952 7.38156V6.73198C139.952 4.61063 138.217 2.88902 136.074 2.88902H125.653C123.51 2.88902 121.771 4.61063 121.771 6.73198V7.38156C121.771 9.50291 123.506 11.2245 125.653 11.2245H136.074C138.217 11.2245 139.952 9.50291 139.952 7.38156Z" fill="#231F20"/>
<path d="M170.375 0.109009H171.187C171.435 0.109009 171.632 0.304337 171.632 0.549632V12.6736C171.632 13.4049 171.036 14 170.297 14H169.021C168.567 13.9909 168.126 13.8546 167.75 13.6093C164.813 11.6924 154.328 4.85138 151.199 2.80726C151.052 2.71186 150.854 2.81634 150.854 2.98896V12.6736C150.854 13.4049 150.258 14 149.519 14H148.707C148.459 14 148.262 13.8047 148.262 13.5594V1.43542C148.262 0.704077 148.858 0.109009 149.597 0.109009H150.799C151.272 0.109009 151.735 0.245284 152.13 0.504207L168.691 11.3108C168.838 11.4062 169.035 11.3017 169.035 11.1246V1.43542C169.035 0.704077 169.636 0.109009 170.37 0.109009H170.375Z" fill="#231F20"/>
<path d="M183.1 2.77547C180.957 2.77547 179.218 4.49708 179.218 6.61843V7.26801C179.218 9.38936 180.952 11.111 183.1 11.111H198.66C199.399 11.111 200 11.7015 200 12.4374V13.4504C200 13.6957 199.803 13.891 199.555 13.891H183.315C179.621 13.891 176.625 10.9247 176.625 7.26801V6.62297C176.625 2.96626 179.621 0 183.315 0H199.555C199.803 0 200 0.195328 200 0.440623V1.4536C200 2.18494 199.403 2.77547 198.66 2.77547H183.1ZM181.819 6.88189C181.819 6.15055 182.416 5.55548 183.159 5.55548H196.958C197.205 5.55548 197.403 5.75081 197.403 5.99611V6.7865C197.403 7.51785 196.806 8.10837 196.063 8.10837H183.063C182.375 8.10837 181.819 7.55873 181.819 6.87735V6.88189Z" fill="#231F20"/>
</g>
<defs>
<clipPath id="clip0_621_1084">
<rect width="200" height="14" fill="white"/>
</clipPath>
</defs>
</svg>
