<svg width="25" height="24" viewBox="0 0 25 24" fill="none" xmlns="http://www.w3.org/2000/svg">
<path fill-rule="evenodd" clip-rule="evenodd" d="M22.5 12C22.5 17.5228 18.0228 22 12.5 22C6.97715 22 2.5 17.5228 2.5 12C2.5 6.47715 6.97715 2 12.5 2C18.0228 2 22.5 6.47715 22.5 12ZM16.5303 8.96967C16.8232 9.26256 16.8232 9.73744 16.5303 10.0303L11.5303 15.0303C11.2374 15.3232 10.7626 15.3232 10.4697 15.0303L8.46967 13.0303C8.17678 12.7374 8.17678 12.2626 8.46967 11.9697C8.76256 11.6768 9.23744 11.6768 9.53033 11.9697L11 13.4393L13.2348 11.2045L15.4697 8.96967C15.7626 8.67678 16.2374 8.67678 16.5303 8.96967Z" fill="#4584FF"/>
</svg>
