<svg width="16" height="15" viewBox="0 0 16 15" fill="none" xmlns="http://www.w3.org/2000/svg">
<path d="M10.025 1.25H7.59115C6.4885 1.24999 5.61511 1.24998 4.93159 1.34225C4.22813 1.43721 3.65876 1.63728 3.20975 2.0881C2.76073 2.53892 2.56146 3.11058 2.46688 3.81685C2.37498 4.50313 2.37499 5.38001 2.375 6.48709V10.1355C2.375 11.0781 2.94997 11.8859 3.76698 12.2245C3.72493 11.6561 3.72496 10.8585 3.725 10.195L3.725 7.12349L3.725 7.06401C3.72495 6.26297 3.72492 5.57277 3.79893 5.02007C3.87825 4.42773 4.05712 3.85995 4.51581 3.39941C4.97451 2.93887 5.54002 2.75928 6.12999 2.67965C6.68048 2.60534 7.36792 2.60538 8.16575 2.60542L8.225 2.60542H10.025L10.0842 2.60542C10.8821 2.60538 11.568 2.60534 12.1185 2.67965C11.7892 1.84237 10.976 1.25 10.025 1.25Z" fill="black"/>
<path d="M4.625 7.12325C4.625 5.41937 4.625 4.56744 5.15221 4.03811C5.67942 3.50879 6.52794 3.50879 8.225 3.50879H10.025C11.7221 3.50879 12.5706 3.50879 13.0978 4.03811C13.625 4.56744 13.625 5.41937 13.625 7.12325V10.1353C13.625 11.8392 13.625 12.6911 13.0978 13.2204C12.5706 13.7498 11.7221 13.7498 10.025 13.7498H8.225C6.52794 13.7498 5.67942 13.7498 5.15221 13.2204C4.625 12.6911 4.625 11.8392 4.625 10.1353V7.12325Z" fill="black"/>
</svg>
