<svg width="18" height="18" viewBox="0 0 18 18" fill="none" xmlns="http://www.w3.org/2000/svg">
<circle cx="9" cy="9" r="9" fill="#FC8145"/>
<path d="M8.5918 14H6.46582L6.47949 12.6396H8.5918C9.20703 12.6396 9.72201 12.5052 10.1367 12.2363C10.556 11.9674 10.8704 11.5824 11.0801 11.0811C11.2943 10.5798 11.4014 9.98275 11.4014 9.29004V8.75C11.4014 8.21224 11.3398 7.736 11.2168 7.32129C11.0983 6.90658 10.9206 6.55794 10.6836 6.27539C10.4512 5.99284 10.1641 5.77865 9.82227 5.63281C9.48503 5.48698 9.09538 5.41406 8.65332 5.41406H6.4248V4.04688H8.65332C9.31413 4.04688 9.91797 4.15853 10.4648 4.38184C11.0117 4.60059 11.4834 4.91732 11.8799 5.33203C12.2809 5.74674 12.5885 6.24349 12.8027 6.82227C13.0169 7.40104 13.124 8.04818 13.124 8.76367V9.29004C13.124 10.0055 13.0169 10.6527 12.8027 11.2314C12.5885 11.8102 12.2809 12.307 11.8799 12.7217C11.4788 13.1318 11.0003 13.4486 10.4443 13.6719C9.8929 13.8906 9.27539 14 8.5918 14ZM7.41602 4.04688V14H5.7002V4.04688H7.41602Z" fill="white"/>
</svg>
