<svg width="16" height="15" viewBox="0 0 16 15" fill="none" xmlns="http://www.w3.org/2000/svg">
<path d="M13.1686 5.30316L13.6096 7.85301C13.7197 8.48987 13.2299 9.07237 12.5843 9.07237H9.34614C9.0252 9.07237 8.78081 9.36045 8.83276 9.67751L9.24693 12.2054C9.31422 12.616 9.295 13.0363 9.19051 13.439C9.10395 13.7727 8.84651 14.0407 8.50794 14.1494L8.41733 14.1785C8.21271 14.2443 7.98938 14.229 7.79646 14.136C7.58412 14.0337 7.42877 13.847 7.37119 13.6251L7.07387 12.4789C6.97927 12.1142 6.84147 11.7622 6.6638 11.4296C6.40421 10.9436 6.00284 10.5547 5.58564 10.1952L4.68642 9.42032C4.43289 9.20184 4.29974 8.87465 4.32859 8.541L4.83619 2.67058C4.88275 2.13212 5.33294 1.71875 5.8728 1.71875H8.77819C10.954 1.71875 12.8109 3.23475 13.1686 5.30316Z" fill="black"/>
<path fill-rule="evenodd" clip-rule="evenodd" d="M2.35479 9.54069C2.60558 9.55151 2.82038 9.36285 2.84201 9.11275L3.44926 2.08993C3.48826 1.63881 3.13293 1.25 2.67919 1.25C2.25181 1.25 1.90625 1.59671 1.90625 2.02329V9.07237C1.90625 9.3234 2.104 9.52987 2.35479 9.54069Z" fill="black"/>
</svg>
