<svg width="22" height="24" viewBox="0 0 22 24" fill="none" xmlns="http://www.w3.org/2000/svg">
<path d="M2.75 10C2.75 6.22876 2.75 4.34315 3.82394 3.17157C4.89788 2 6.62637 2 10.0833 2H11.9167C15.3736 2 17.1021 2 18.1761 3.17157C19.25 4.34315 19.25 6.22876 19.25 10V14C19.25 17.7712 19.25 19.6569 18.1761 20.8284C17.1021 22 15.3736 22 11.9167 22H10.0833C6.62637 22 4.89788 22 3.82394 20.8284C2.75 19.6569 2.75 17.7712 2.75 14V10Z" stroke="#18181B" stroke-width="1.5"/>
<path d="M7.33325 12H14.6666" stroke="#18181B" stroke-width="1.5" stroke-linecap="round"/>
<path d="M7.33325 8H14.6666" stroke="#18181B" stroke-width="1.5" stroke-linecap="round"/>
<path d="M7.33325 16H11.9166" stroke="#18181B" stroke-width="1.5" stroke-linecap="round"/>
</svg>
