<svg width="25" height="25" viewBox="0 0 25 25" fill="none" xmlns="http://www.w3.org/2000/svg">
<path d="M12.6666 17.3333C11.5621 17.3333 10.6666 18.2287 10.6666 19.3333C10.6666 20.4379 11.5621 21.3333 12.6666 21.3333C13.7712 21.3333 14.6666 20.4379 14.6666 19.3333C14.6666 18.2287 13.7712 17.3333 12.6666 17.3333Z" fill="#18181B"/>
<path d="M12.6666 10.3333C11.5621 10.3333 10.6666 11.2287 10.6666 12.3333C10.6666 13.4379 11.5621 14.3333 12.6666 14.3333C13.7712 14.3333 14.6666 13.4379 14.6666 12.3333C14.6666 11.2287 13.7712 10.3333 12.6666 10.3333Z" fill="#18181B"/>
<path d="M12.6666 3.33331C11.5621 3.33331 10.6666 4.22874 10.6666 5.33331C10.6666 6.43788 11.5621 7.33331 12.6666 7.33331C13.7712 7.33331 14.6666 6.43788 14.6666 5.33331C14.6666 4.22874 13.7712 3.33331 12.6666 3.33331Z" fill="#18181B"/>
</svg>
