<svg width="23" height="23" viewBox="0 0 23 23" fill="none" xmlns="http://www.w3.org/2000/svg">
<path d="M21.0837 10.0626V11.5001C21.0837 16.0177 21.0837 18.2765 19.6802 19.68C18.2768 21.0834 16.018 21.0834 11.5003 21.0834C6.9827 21.0834 4.72389 21.0834 3.32044 19.68C1.91699 18.2765 1.91699 16.0177 1.91699 11.5001C1.91699 6.98246 1.91699 4.72364 3.32044 3.32019C4.72389 1.91675 6.9827 1.91675 11.5003 1.91675H12.9378" stroke="black" stroke-width="1.5" stroke-linecap="round"/>
<path d="M15.9585 3.31118L16.5803 2.6894C17.6105 1.6592 19.2808 1.6592 20.311 2.6894C21.3412 3.7196 21.3412 5.38989 20.311 6.42009L19.6892 7.04187M15.9585 3.31118C15.9585 3.31118 16.0363 4.63247 17.2021 5.79831C18.3679 6.96415 19.6892 7.04187 19.6892 7.04187M15.9585 3.31118L10.2422 9.02751C9.85502 9.41469 9.66143 9.60828 9.49494 9.82174C9.29855 10.0735 9.13017 10.346 8.99279 10.6342C8.87633 10.8786 8.78975 11.1383 8.6166 11.6578L8.06223 13.3209M19.6892 7.04187L13.9729 12.7582C13.5857 13.1454 13.3921 13.339 13.1787 13.5055C12.9269 13.7019 12.6544 13.8702 12.3662 14.0076C12.1218 14.1241 11.8621 14.2107 11.3426 14.3838L9.67949 14.9382M9.67949 14.9382L8.60337 15.2969C8.34774 15.3821 8.06591 15.3156 7.87537 15.125C7.68484 14.9345 7.61831 14.6527 7.70352 14.397L8.06223 13.3209M9.67949 14.9382L8.06223 13.3209" stroke="black" stroke-width="1.5"/>
</svg>
