<svg width="15" height="14" viewBox="0 0 15 14" fill="none" xmlns="http://www.w3.org/2000/svg">
<path d="M6.45927 11.2438C6.64487 11.0991 6.81323 10.9307 7.1499 10.594L11.4641 6.27979C10.877 6.0354 10.1815 5.63397 9.5238 4.97625C8.86598 4.31843 8.46452 3.62286 8.22015 3.03563L3.90582 7.34996L3.90578 7.35C3.56914 7.68664 3.40079 7.85499 3.25603 8.04059C3.08525 8.25954 2.93883 8.49645 2.81937 8.74712C2.7181 8.95961 2.64281 9.18546 2.49225 9.63717L1.69827 12.0191C1.62417 12.2414 1.68202 12.4865 1.84771 12.6522C2.01339 12.8178 2.25846 12.8757 2.48074 12.8016L4.86269 12.0076C5.31439 11.857 5.54024 11.7818 5.75274 11.6805C6.00341 11.561 6.24031 11.4146 6.45927 11.2438Z" fill="#03338B"/>
<path d="M12.6613 5.08264C13.5571 4.18681 13.5571 2.73439 12.6613 1.83856C11.7655 0.94273 10.313 0.94273 9.41722 1.83856L8.89978 2.356C8.90687 2.37739 8.91422 2.39909 8.92184 2.42106C9.1115 2.96773 9.46935 3.68436 10.1425 4.35753C10.8157 5.03071 11.5323 5.38855 12.079 5.57821C12.1009 5.5858 12.1225 5.59312 12.1438 5.60017L12.6613 5.08264Z" fill="#03338B"/>
</svg>
