<svg width="28" height="40" viewBox="0 0 28 40" fill="none" xmlns="http://www.w3.org/2000/svg">
<path d="M12.7936 4.18098C13.0568 4.45863 12.9933 5.05134 12.9933 5.05134C12.8106 8.25928 11.7771 11.2054 9.8859 13.0791C9.08002 13.878 8.1557 14.538 7.27087 15.2429C7.11217 15.3693 6.87064 15.5397 6.73517 15.676C6.71968 15.691 6.68872 15.6952 6.69723 15.7284C8.56135 17.1857 10.4812 18.539 11.6625 20.6621C14.0043 24.8726 13.2975 32.0242 8.97629 34.7208C7.72296 35.5729 5.69782 35.8921 5.69782 35.8921C4.77505 36.0443 5.01658 35.1207 5.01658 35.1207C5.01658 35.1207 5.1567 34.5854 5.31153 33.9702C5.46636 33.3542 6.06554 33.188 6.06554 33.188C8.01636 32.7033 9.25343 31.4531 9.93157 29.5685C10.2056 28.8071 10.3821 27.9683 10.4224 27.1578C8.67902 26.5917 6.87374 26.0713 5.29063 25.1211C2.66631 23.5433 1.53684 21.3113 2.17396 18.2073C2.3582 17.3103 2.72824 16.4624 3.23762 15.7093C2.57573 14.7575 2.17551 13.6244 2.05087 12.4656C1.57555 8.04398 4.83466 6.16194 8.43749 4.91251C9.12337 4.67477 10.8528 4.18347 11.5557 4.0114C12.2586 3.83932 12.5056 3.87673 12.7943 4.18098H12.7936ZM5.07077 13.7691C5.28134 13.6211 5.51281 13.3925 5.7226 13.2262C6.818 12.3575 7.98462 11.5429 8.85243 10.4273C9.62966 9.42724 10.1174 8.25429 10.3124 6.99655C8.89036 7.46207 7.34906 7.92011 6.11663 8.79962C4.76112 9.76724 4.31677 10.8255 4.59391 12.5047C4.66822 12.9552 4.8246 13.3792 5.01426 13.7907C5.04832 13.7998 5.05142 13.7815 5.07077 13.7682V13.7691ZM4.59391 18.928C4.29509 20.7419 4.87182 21.8301 6.36281 22.7927C7.56039 23.5658 8.96777 23.9964 10.3117 24.437C10.1685 23.5267 9.87583 22.6364 9.41755 21.84C8.494 20.234 6.99992 19.2157 5.58712 18.0943C5.42223 17.9637 5.23644 17.7784 5.07 17.6645C5.05142 17.652 5.04832 17.6321 5.01426 17.642C4.8215 18.051 4.66822 18.4783 4.59391 18.928Z" fill="url(#paint0_linear_4878_6077)"/>
<path d="M15.9443 4.01259C16.6472 4.18466 18.3759 4.67512 19.0625 4.9137C22.6653 6.16311 25.9244 8.04512 25.4491 12.4675C25.3245 13.6255 24.9243 14.7594 24.2624 15.7112C24.7718 16.4651 25.1418 17.3131 25.326 18.2092C25.9632 21.3132 24.8337 23.5452 22.2094 25.1213C20.627 26.0714 18.8218 26.5918 17.0776 27.1579C17.1187 27.9676 17.2952 28.8071 17.5684 29.5686C18.2466 31.4531 19.4836 32.7034 21.4345 33.188C21.4345 33.188 22.0336 33.3542 22.1885 33.9702C22.3433 34.5862 22.4834 35.1207 22.4834 35.1207C22.4834 35.1207 22.7249 36.0443 21.8022 35.8921C21.8022 35.8921 19.7763 35.5729 18.5237 34.7209C14.2025 32.0242 13.4957 24.8727 15.8375 20.6623C17.0188 18.5384 18.9386 17.1859 20.8028 15.7286C20.8113 15.6954 20.7795 15.6912 20.7648 15.6763C20.6294 15.5391 20.3878 15.3695 20.2291 15.2432C19.3451 14.5391 18.4208 13.8782 17.6141 13.0793C15.7229 11.2065 14.6894 8.25959 14.5067 5.05169C14.5067 5.05169 14.4432 4.45899 14.7064 4.18134C14.9952 3.87709 15.2367 3.83885 15.9451 4.01176L15.9443 4.01259ZM22.485 13.7926C22.6746 13.3811 22.831 12.9572 22.9053 12.5066C23.1825 10.8266 22.7381 9.76836 21.3826 8.80159C20.1509 7.92209 18.6089 7.46406 17.1868 6.99854C17.3819 8.25627 17.8696 9.4292 18.6468 10.4292C19.5146 11.5456 20.6812 12.3603 21.7766 13.2281C21.9864 13.3944 22.2179 13.623 22.4285 13.771C22.4478 13.7843 22.4509 13.8026 22.485 13.7934V13.7926ZM22.485 17.6431C22.4501 17.6331 22.4478 17.653 22.4292 17.6655C22.2628 17.7786 22.077 17.9639 21.9121 18.0953C20.4993 19.2158 19.0052 20.2342 18.0817 21.841C17.6234 22.6382 17.3308 23.5285 17.1876 24.4379C18.5315 23.9982 19.9388 23.5676 21.1364 22.7937C22.6274 21.8311 23.2049 20.7429 22.9053 18.9291C22.831 18.4793 22.6777 18.0521 22.485 17.6431Z" fill="url(#paint1_linear_4878_6077)"/>
<defs>
<linearGradient id="paint0_linear_4878_6077" x1="7.50001" y1="3.16182" x2="7.50001" y2="24.846" gradientUnits="userSpaceOnUse">
<stop stop-color="#0554EF"/>
<stop offset="1" stop-color="#8937E2"/>
</linearGradient>
<linearGradient id="paint1_linear_4878_6077" x1="19.9992" y1="3.16302" x2="19.9992" y2="24.8469" gradientUnits="userSpaceOnUse">
<stop stop-color="#0554EF"/>
<stop offset="1" stop-color="#8937E2"/>
</linearGradient>
</defs>
</svg>
