<svg width="16" height="15" viewBox="0 0 16 15" fill="none" xmlns="http://www.w3.org/2000/svg">
<path d="M13.1685 10.1656L13.6094 7.61574C13.7196 6.97888 13.2298 6.39638 12.5842 6.39638H9.34602C9.02508 6.39638 8.78069 6.1083 8.83264 5.79124L9.24681 3.26339C9.31409 2.85272 9.29488 2.4325 9.19039 2.0297C9.10383 1.69603 8.84639 1.42809 8.50782 1.31933L8.41721 1.29022C8.21259 1.22449 7.98926 1.23978 7.79634 1.33275C7.58399 1.43507 7.42864 1.62171 7.37107 1.84368L7.07375 2.98984C6.97915 3.35452 6.84135 3.70653 6.66368 4.03913C6.40409 4.52511 6.00272 4.91404 5.58551 5.27356L4.6863 6.04843C4.43277 6.26691 4.29962 6.5941 4.32847 6.92775L4.83607 12.7982C4.88263 13.3366 5.33282 13.75 5.87268 13.75H8.77807C10.9539 13.75 12.8108 12.234 13.1685 10.1656Z" fill="black"/>
<path fill-rule="evenodd" clip-rule="evenodd" d="M2.35479 5.92818C2.60558 5.91736 2.82038 6.10602 2.84201 6.35611L3.44926 13.3789C3.48826 13.8301 3.13293 14.2189 2.67919 14.2189C2.25181 14.2189 1.90625 13.8722 1.90625 13.4456V6.39649C1.90625 6.14547 2.104 5.939 2.35479 5.92818Z" fill="black"/>
</svg>
