<svg width="33" height="29" viewBox="0 0 33 29" fill="none" xmlns="http://www.w3.org/2000/svg">
<path d="M9.16663 12.6666C9.16663 9.52394 9.16663 7.95259 10.1429 6.97628C11.1192 5.99997 12.6906 5.99997 15.8333 5.99997H17.5C20.6427 5.99997 22.214 5.99997 23.1903 6.97628C24.1666 7.95259 24.1666 9.52394 24.1666 12.6666V16C24.1666 19.1427 24.1666 20.714 23.1903 21.6903C22.214 22.6666 20.6427 22.6666 17.5 22.6666H15.8333C12.6906 22.6666 11.1192 22.6666 10.1429 21.6903C9.16663 20.714 9.16663 19.1427 9.16663 16V12.6666Z" stroke="black" stroke-width="1.5"/>
<path d="M13.3333 14.3333H20" stroke="black" stroke-width="1.5" stroke-linecap="round"/>
<path d="M13.3333 11H20" stroke="black" stroke-width="1.5" stroke-linecap="round"/>
<path d="M13.3333 17.6667H17.5" stroke="black" stroke-width="1.5" stroke-linecap="round"/>
</svg>
