<svg width="24" height="25" viewBox="0 0 24 25" fill="none" xmlns="http://www.w3.org/2000/svg">
<path d="M9.00195 7.5C9.01406 5.32497 9.11051 4.14706 9.87889 3.37868C10.7576 2.5 12.1718 2.5 15.0002 2.5L16.0002 2.5C18.8286 2.5 20.2429 2.5 21.1215 3.37868C22.0002 4.25736 22.0002 5.67157 22.0002 8.5L22.0002 16.5C22.0002 19.3284 22.0002 20.7426 21.1215 21.6213C20.2429 22.5 18.8286 22.5 16.0002 22.5H15.0002C12.1718 22.5 10.7576 22.5 9.87889 21.6213C9.11051 20.8529 9.01406 19.675 9.00195 17.5" stroke="black" stroke-width="1.5" stroke-linecap="round"/>
<path d="M15 12.5L2 12.5M2 12.5L5.5 9.5M2 12.5L5.5 15.5" stroke="black" stroke-width="1.5" stroke-linecap="round" stroke-linejoin="round"/>
</svg>
