<svg width="121" height="40" viewBox="0 0 121 40" fill="none" xmlns="http://www.w3.org/2000/svg">
<rect width="121" height="40" rx="12" fill="#0554EF"/>
<g clip-path="url(#clip0_6159_1807)">
<circle cx="26" cy="19.9998" r="8.33333" stroke="white" stroke-width="1.5"/>
<path d="M28.5 20L26 20M26 20L23.5 20M26 20L26 17.5M26 20L26 22.5" stroke="white" stroke-width="1.5" stroke-linecap="round"/>
</g>
<path d="M52.8115 15.0469V25H51.4854L46.4746 17.3232V25H45.1553V15.0469H46.4746L51.5059 22.7441V15.0469H52.8115ZM58.0273 25.1367C57.5124 25.1367 57.0452 25.0501 56.626 24.877C56.2113 24.6992 55.8535 24.4508 55.5527 24.1318C55.2565 23.8128 55.0286 23.4346 54.8691 22.9971C54.7096 22.5596 54.6299 22.0811 54.6299 21.5615V21.2744C54.6299 20.6729 54.7188 20.1374 54.8965 19.668C55.0742 19.194 55.3158 18.793 55.6211 18.4648C55.9264 18.1367 56.2728 17.8883 56.6602 17.7197C57.0475 17.5511 57.4486 17.4668 57.8633 17.4668C58.3919 17.4668 58.8477 17.5579 59.2305 17.7402C59.6178 17.9225 59.9346 18.1777 60.1807 18.5059C60.4268 18.8294 60.609 19.2122 60.7275 19.6543C60.846 20.0918 60.9053 20.5703 60.9053 21.0898V21.6572H55.3818V20.625H59.6406V20.5293C59.6224 20.2012 59.554 19.8822 59.4355 19.5723C59.3216 19.2624 59.1393 19.0072 58.8887 18.8066C58.638 18.6061 58.2962 18.5059 57.8633 18.5059C57.5762 18.5059 57.3118 18.5674 57.0703 18.6904C56.8288 18.8089 56.6214 18.9867 56.4482 19.2236C56.2751 19.4606 56.1406 19.75 56.0449 20.0918C55.9492 20.4336 55.9014 20.8278 55.9014 21.2744V21.5615C55.9014 21.9124 55.9492 22.2428 56.0449 22.5527C56.1452 22.8581 56.2887 23.127 56.4756 23.3594C56.667 23.5918 56.8971 23.7741 57.166 23.9062C57.4395 24.0384 57.7493 24.1045 58.0957 24.1045C58.5423 24.1045 58.9206 24.0133 59.2305 23.8311C59.5404 23.6488 59.8115 23.4049 60.0439 23.0996L60.8096 23.708C60.6501 23.9495 60.4473 24.1797 60.2012 24.3984C59.9551 24.6172 59.652 24.7949 59.292 24.9316C58.9365 25.0684 58.515 25.1367 58.0273 25.1367ZM64.2549 23.6875L66.1553 17.6035H66.9893L66.8252 18.8135L64.8906 25H64.0771L64.2549 23.6875ZM62.9766 17.6035L64.5967 23.7559L64.7129 25H63.8584L61.7119 17.6035H62.9766ZM68.8076 23.708L70.3525 17.6035H71.6104L69.4639 25H68.6162L68.8076 23.708ZM67.1738 17.6035L69.0332 23.585L69.2451 25H68.4385L66.4492 18.7998L66.2852 17.6035H67.1738ZM82.582 21.835H83.8945C83.8262 22.4639 83.6462 23.0267 83.3545 23.5234C83.0628 24.0202 82.6504 24.4144 82.1172 24.7061C81.584 24.9932 80.9186 25.1367 80.1211 25.1367C79.5378 25.1367 79.0068 25.0273 78.5283 24.8086C78.0544 24.5898 77.6465 24.2799 77.3047 23.8789C76.9629 23.4733 76.6986 22.988 76.5117 22.4229C76.3294 21.8532 76.2383 21.2197 76.2383 20.5225V19.5312C76.2383 18.834 76.3294 18.2028 76.5117 17.6377C76.6986 17.068 76.9652 16.5804 77.3115 16.1748C77.6624 15.7692 78.084 15.457 78.5762 15.2383C79.0684 15.0195 79.6221 14.9102 80.2373 14.9102C80.9893 14.9102 81.625 15.0514 82.1445 15.334C82.6641 15.6165 83.0674 16.0085 83.3545 16.5098C83.6462 17.0065 83.8262 17.583 83.8945 18.2393H82.582C82.5182 17.7744 82.3997 17.3757 82.2266 17.043C82.0534 16.7057 81.8073 16.446 81.4883 16.2637C81.1693 16.0814 80.7523 15.9902 80.2373 15.9902C79.7952 15.9902 79.4056 16.0745 79.0684 16.2432C78.7357 16.4118 78.4554 16.651 78.2275 16.9609C78.0042 17.2708 77.8356 17.6423 77.7217 18.0752C77.6077 18.5081 77.5508 18.9889 77.5508 19.5176V20.5225C77.5508 21.0101 77.6009 21.4681 77.7012 21.8965C77.806 22.3249 77.9632 22.7008 78.1729 23.0244C78.3825 23.348 78.6491 23.6032 78.9727 23.79C79.2962 23.9723 79.679 24.0635 80.1211 24.0635C80.6816 24.0635 81.1283 23.9746 81.4609 23.7969C81.7936 23.6191 82.0443 23.3639 82.2129 23.0312C82.3861 22.6986 82.5091 22.2998 82.582 21.835ZM86.7656 14.5V25H85.501V14.5H86.7656ZM86.4648 21.0215L85.9385 21.001C85.943 20.4951 86.0182 20.028 86.1641 19.5996C86.3099 19.1667 86.515 18.7907 86.7793 18.4717C87.0436 18.1527 87.3581 17.9066 87.7227 17.7334C88.0918 17.5557 88.4997 17.4668 88.9463 17.4668C89.3109 17.4668 89.639 17.5169 89.9307 17.6172C90.2223 17.7129 90.4707 17.8678 90.6758 18.082C90.8854 18.2962 91.0449 18.5742 91.1543 18.916C91.2637 19.2533 91.3184 19.6657 91.3184 20.1533V25H90.0469V20.1396C90.0469 19.7523 89.9899 19.4424 89.876 19.21C89.762 18.973 89.5957 18.8021 89.377 18.6973C89.1582 18.5879 88.8893 18.5332 88.5703 18.5332C88.2559 18.5332 87.9688 18.5993 87.709 18.7314C87.4538 18.8636 87.2327 19.0459 87.0459 19.2783C86.8636 19.5107 86.7201 19.7773 86.6152 20.0781C86.515 20.3743 86.4648 20.6888 86.4648 21.0215ZM97.5732 23.7354V19.9277C97.5732 19.6361 97.514 19.3831 97.3955 19.1689C97.2816 18.9502 97.1084 18.7816 96.876 18.6631C96.6436 18.5446 96.3564 18.4854 96.0146 18.4854C95.6956 18.4854 95.4154 18.54 95.1738 18.6494C94.9368 18.7588 94.75 18.9023 94.6133 19.0801C94.4811 19.2578 94.415 19.4492 94.415 19.6543H93.1504C93.1504 19.39 93.2188 19.1279 93.3555 18.8682C93.4922 18.6084 93.6882 18.3737 93.9434 18.1641C94.2031 17.9499 94.513 17.7812 94.873 17.6582C95.2376 17.5306 95.6432 17.4668 96.0898 17.4668C96.6276 17.4668 97.1016 17.5579 97.5117 17.7402C97.9264 17.9225 98.25 18.1982 98.4824 18.5674C98.7194 18.932 98.8379 19.39 98.8379 19.9414V23.3867C98.8379 23.6328 98.8584 23.8949 98.8994 24.1729C98.945 24.4508 99.0111 24.6901 99.0977 24.8906V25H97.7783C97.7145 24.8542 97.6644 24.6605 97.6279 24.4189C97.5915 24.1729 97.5732 23.945 97.5732 23.7354ZM97.792 20.5156L97.8057 21.4043H96.5273C96.1673 21.4043 95.846 21.4339 95.5635 21.4932C95.2809 21.5479 95.0439 21.6322 94.8525 21.7461C94.6611 21.86 94.5153 22.0036 94.415 22.1768C94.3148 22.3454 94.2646 22.5436 94.2646 22.7715C94.2646 23.0039 94.3171 23.2158 94.4219 23.4072C94.5267 23.5986 94.6839 23.7513 94.8936 23.8652C95.1077 23.9746 95.3698 24.0293 95.6797 24.0293C96.0671 24.0293 96.4089 23.9473 96.7051 23.7832C97.0013 23.6191 97.236 23.4186 97.4092 23.1816C97.5869 22.9447 97.6826 22.7145 97.6963 22.4912L98.2363 23.0996C98.2044 23.291 98.1178 23.5029 97.9766 23.7354C97.8353 23.9678 97.6462 24.1911 97.4092 24.4053C97.1768 24.6149 96.8988 24.7904 96.5752 24.9316C96.2562 25.0684 95.8962 25.1367 95.4951 25.1367C94.9938 25.1367 94.554 25.0387 94.1758 24.8428C93.8021 24.6468 93.5104 24.3848 93.3008 24.0566C93.0957 23.724 92.9932 23.3525 92.9932 22.9424C92.9932 22.5459 93.0706 22.1973 93.2256 21.8965C93.3805 21.5911 93.6038 21.3382 93.8955 21.1377C94.1872 20.9326 94.5381 20.7777 94.9482 20.6729C95.3584 20.568 95.8164 20.5156 96.3223 20.5156H97.792ZM103.924 17.6035V18.5742H99.9248V17.6035H103.924ZM101.278 15.8057H102.543V23.168C102.543 23.4186 102.582 23.6077 102.659 23.7354C102.737 23.863 102.837 23.9473 102.96 23.9883C103.083 24.0293 103.215 24.0498 103.356 24.0498C103.461 24.0498 103.571 24.0407 103.685 24.0225C103.803 23.9997 103.892 23.9814 103.951 23.9678L103.958 25C103.858 25.0319 103.726 25.0615 103.562 25.0889C103.402 25.1208 103.208 25.1367 102.98 25.1367C102.671 25.1367 102.386 25.0752 102.126 24.9521C101.866 24.8291 101.659 24.624 101.504 24.3369C101.354 24.0452 101.278 23.6533 101.278 23.1611V15.8057Z" fill="white"/>
<defs>
<clipPath id="clip0_6159_1807">
<rect width="20" height="20" fill="white" transform="translate(16 10)"/>
</clipPath>
</defs>
</svg>
