<svg width="24" height="24" viewBox="0 0 24 24" fill="none" xmlns="http://www.w3.org/2000/svg">
<path d="M7.5 19C8.15503 20.7478 9.92246 22 12 22C14.0775 22 15.845 20.7478 16.5 19" stroke="black" stroke-width="1.5" stroke-linecap="round"/>
<path d="M12.0001 1.25C12.6592 1.25001 13.297 1.33827 13.9041 1.50294C14.3497 1.62381 14.4635 2.17906 14.2137 2.56741C14.0332 2.84799 13.6891 2.99413 13.3651 2.91483C12.9259 2.80737 12.469 2.75001 12.0001 2.75C8.71297 2.75 6.00113 5.52385 6.00109 9.00488V9.70996C6.00101 10.6974 5.719 11.6654 5.18859 12.4912L4.08117 14.2148C3.32751 15.3884 3.92549 16.9481 5.17492 17.3018C9.64352 18.5666 14.3567 18.5666 18.8253 17.3018C20.0746 16.948 20.6726 15.3883 19.9191 14.2148L18.8116 12.4912C18.2812 11.6654 18.0002 10.8859 18.0001 9.89844C18.0001 9.65274 18.1264 9.42072 18.3345 9.29011C18.4649 9.20828 18.6183 9.17078 18.7718 9.18322L19.0728 9.20763C19.3136 9.22715 19.4991 9.4283 19.4991 9.66992V9.70996C19.4992 10.4133 19.7002 11.0986 20.0734 11.6797L21.1808 13.4043C22.4498 15.3802 21.5031 18.1015 19.2345 18.7441C14.4986 20.0847 9.50164 20.0847 4.76574 18.7441C2.497 18.1015 1.55034 15.3802 2.81945 13.4043L3.92687 11.6797C4.29999 11.0986 4.50101 10.4133 4.50109 9.70996V9.00488C4.50113 4.74852 7.83243 1.25 12.0001 1.25Z" fill="black"/>
<circle cx="17.7161" cy="5.07324" r="3" fill="#D6003D"/>
</svg>
