<svg width="16" height="15" viewBox="0 0 16 15" fill="none" xmlns="http://www.w3.org/2000/svg">
<path d="M2.79988 7.08333H2.04988V7.08333L2.79988 7.08333ZM2.79988 8.125L2.27164 8.65741C2.56405 8.94753 3.03572 8.94753 3.32812 8.65741L2.79988 8.125ZM4.37801 7.61574C4.67205 7.324 4.67391 6.84913 4.38217 6.55509C4.09043 6.26105 3.61556 6.25918 3.32152 6.55092L4.37801 7.61574ZM2.27824 6.55092C1.9842 6.25918 1.50933 6.26105 1.21759 6.55509C0.92585 6.84913 0.927716 7.324 1.22176 7.61574L2.27824 6.55092ZM11.8951 4.76779C12.1121 5.12065 12.574 5.23085 12.9268 5.01392C13.2797 4.79699 13.3899 4.33507 13.173 3.98221L11.8951 4.76779ZM8.04929 1.875V1.125C4.74148 1.125 2.04988 3.78709 2.04988 7.08333H2.79988H3.54988C3.54988 4.62661 5.55877 2.625 8.04929 2.625V1.875ZM2.79988 7.08333L2.04988 7.08333L2.04988 8.125H2.79988H3.54988L3.54988 7.08333H2.79988ZM2.79988 8.125L3.32812 8.65741L4.37801 7.61574L3.84976 7.08333L3.32152 6.55092L2.27164 7.59259L2.79988 8.125ZM2.79988 8.125L3.32812 7.59259L2.27824 6.55092L1.75 7.08333L1.22176 7.61574L2.27164 8.65741L2.79988 8.125ZM12.534 4.375L13.173 3.98221C12.1196 2.26876 10.2181 1.125 8.04929 1.125V1.875V2.625C9.67921 2.625 11.1052 3.48294 11.8951 4.76779L12.534 4.375Z" fill="black"/>
<path d="M13.1962 6.875L13.7234 6.34158C13.4312 6.05281 12.9611 6.05281 12.669 6.34158L13.1962 6.875ZM11.6151 7.38325C11.3205 7.67443 11.3177 8.14929 11.6089 8.44389C11.9001 8.73849 12.3749 8.74126 12.6695 8.45008L11.6151 7.38325ZM13.7229 8.45008C14.0175 8.74126 14.4923 8.73849 14.7835 8.44389C15.0747 8.14929 15.0719 7.67443 14.7773 7.38325L13.7229 8.45008ZM4.06305 10.2311C3.84552 9.87863 3.38342 9.76922 3.03093 9.98675C2.67843 10.2043 2.56902 10.6664 2.78656 11.0189L4.06305 10.2311ZM7.92671 13.125V13.875C11.2429 13.875 13.9462 11.2156 13.9462 7.91667H13.1962H12.4462C12.4462 10.3707 10.431 12.375 7.92671 12.375V13.125ZM13.1962 7.91667H13.9462V6.875H13.1962H12.4462V7.91667H13.1962ZM13.1962 6.875L12.669 6.34158L11.6151 7.38325L12.1423 7.91667L12.6695 8.45008L13.7234 7.40842L13.1962 6.875ZM13.1962 6.875L12.669 7.40842L13.7229 8.45008L14.2501 7.91667L14.7773 7.38325L13.7234 6.34158L13.1962 6.875ZM3.4248 10.625L2.78656 11.0189C3.84407 12.7325 5.75198 13.875 7.92671 13.875V13.125V12.375C6.28818 12.375 4.85586 11.5158 4.06305 10.2311L3.4248 10.625Z" fill="black"/>
</svg>
