<svg width="24" height="24" viewBox="0 0 24 24" fill="none" xmlns="http://www.w3.org/2000/svg">
<path d="M20.4566 5.70761C20.4566 4.12801 19.1761 2.84749 17.5965 2.84749H6.40349C4.82388 2.84749 3.54336 4.12801 3.54336 5.70761H7.8093H12.0251H16.2409H20.4566Z" fill="black"/>
<path d="M3.54336 5.70761V5.70761C3.54336 4.12801 4.82388 2.84749 6.40349 2.84749H17.5965C19.1761 2.84749 20.4566 4.12801 20.4566 5.70761V5.70761M3.54336 5.70761V11.0711M3.54336 5.70761H7.8093M20.4566 5.70761V11.0711M20.4566 5.70761H16.2409M20.4566 11.0711H3.54336M20.4566 11.0711V13.5456V15.7867M3.54336 11.0711V13.5572V15.7867M20.4566 15.7867V16.9367C20.4566 19.265 18.5692 21.1525 16.2409 21.1525V21.1525M20.4566 15.7867H3.54336M3.54336 15.7867V16.8866C3.54336 19.2426 5.45329 21.1525 7.8093 21.1525V21.1525M12.0251 5.70761V21.1525M12.0251 5.70761H16.2409M12.0251 5.70761H7.8093M12.0251 21.1525H16.2409M12.0251 21.1525H7.8093M16.2409 5.70761V21.1525M7.8093 5.70761V21.1525" stroke="black" stroke-width="1.25"/>
</svg>
