<svg width="23" height="19" viewBox="0 0 23 19" fill="none" xmlns="http://www.w3.org/2000/svg">
<path d="M4.00012 1L16.0001 18" stroke="#D6003D" stroke-width="1.5" stroke-linecap="round"/>
<path d="M11.9999 14.5022C10.8383 14.3443 9.62381 14.7389 8.72644 15.6877C8.34692 16.0887 7.71354 16.1062 7.31238 15.7268C6.91143 15.3473 6.89399 14.7139 7.27332 14.3127C8.21169 13.3206 9.38943 12.7295 10.6132 12.5374L11.9999 14.5022ZM14.0468 13.0657C14.6552 13.3674 15.2251 13.7827 15.7264 14.3127C16.0591 14.6644 16.0866 15.1943 15.8182 15.5754L14.0468 13.0657ZM8.6366 9.73755C7.39198 10.1866 6.22116 10.9348 5.22644 11.9866C4.84692 12.3876 4.21355 12.4051 3.81238 12.0256C3.41144 11.6461 3.39399 11.0127 3.77332 10.6116C4.85488 9.46805 6.10963 8.61688 7.44812 8.05396L8.6366 9.73755ZM10.0077 7.34302C13.106 6.89505 16.3521 7.84658 18.8192 10.2024L19.2264 10.6116L19.2928 10.6897C19.6022 11.0912 19.5634 11.6698 19.1874 12.0256C18.8112 12.3813 18.2312 12.388 17.8475 12.0569L17.7733 11.9866L17.4423 11.6526C15.7131 9.99998 13.5227 9.19485 11.3436 9.2356L10.0077 7.34302ZM5.57996 5.40747C4.1868 6.10658 2.88052 7.06613 1.72644 8.28638C1.34692 8.68737 0.713539 8.70485 0.312378 8.32544C-0.0886123 7.94594 -0.106026 7.31255 0.273315 6.91138C1.5183 5.59504 2.91988 4.54322 4.41492 3.7561L5.57996 5.40747ZM6.77039 2.75708C12.1012 1.00689 18.1365 2.29127 22.4335 6.60962L22.7264 6.91138L22.7928 6.9895C23.1021 7.39099 23.0634 7.96963 22.6874 8.32544C22.3112 8.68111 21.7312 8.68776 21.3475 8.35669L21.2733 8.28638L21.0175 8.02271C17.4297 4.41622 12.4716 3.23547 7.98621 4.47974L6.77039 2.75708Z" fill="black"/>
</svg>
