<svg width="18" height="19" viewBox="0 0 18 19" fill="none" xmlns="http://www.w3.org/2000/svg">
<path d="M6.86487 4.56712C7.81486 2.86293 8.28985 2.01083 9 2.01083C9.71015 2.01083 10.1851 2.86293 11.1351 4.56711L11.3809 5.00801C11.6509 5.49228 11.7858 5.73442 11.9963 5.89419C12.2068 6.05395 12.4689 6.11326 12.9931 6.23187L13.4703 6.33986C15.3151 6.75725 16.2375 6.96595 16.4569 7.67163C16.6764 8.37732 16.0476 9.11264 14.7899 10.5833L14.4646 10.9637C14.1072 11.3817 13.9285 11.5906 13.8481 11.8491C13.7677 12.1076 13.7947 12.3864 13.8488 12.944L13.898 13.4516C14.0881 15.4138 14.1832 16.3949 13.6086 16.831C13.0341 17.2671 12.1705 16.8695 10.4432 16.0742L9.99639 15.8685C9.50556 15.6425 9.26014 15.5295 9 15.5295C8.73986 15.5295 8.49444 15.6425 8.00362 15.8685L7.55676 16.0742C5.82951 16.8695 4.96588 17.2671 4.39136 16.831C3.81684 16.3949 3.91191 15.4138 4.10205 13.4516L4.15124 12.944C4.20527 12.3864 4.23228 12.1076 4.1519 11.8491C4.07151 11.5906 3.89282 11.3817 3.53544 10.9638L3.21007 10.5833C1.95244 9.11264 1.32362 8.37732 1.54307 7.67163C1.76251 6.96595 2.68489 6.75725 4.52965 6.33986L5.00691 6.23187C5.53114 6.11326 5.79325 6.05395 6.00371 5.89419C6.21417 5.73442 6.34914 5.49229 6.6191 5.00801L6.86487 4.56712Z" stroke="white" stroke-width="1.25"/>
</svg>
