<svg width="18" height="19" viewBox="0 0 18 19" fill="none" xmlns="http://www.w3.org/2000/svg">
<path d="M1.5 9.51086C1.5 5.97533 1.5 4.20756 2.59835 3.10921C3.6967 2.01086 5.46447 2.01086 9 2.01086C12.5355 2.01086 14.3033 2.01086 15.4017 3.10921C16.5 4.20756 16.5 5.97533 16.5 9.51086C16.5 13.0464 16.5 14.8142 15.4017 15.9125C14.3033 17.0109 12.5355 17.0109 9 17.0109C5.46447 17.0109 3.6967 17.0109 2.59835 15.9125C1.5 14.8142 1.5 13.0464 1.5 9.51086Z" stroke="white" stroke-width="1.25"/>
<path d="M5.25 14.0109L5.25 11.7609" stroke="white" stroke-width="1.25" stroke-linecap="round"/>
<path d="M9 14.0109V9.51086" stroke="white" stroke-width="1.25" stroke-linecap="round"/>
<path d="M12.75 14.0109V7.26086" stroke="white" stroke-width="1.25" stroke-linecap="round"/>
</svg>
