<svg width="20" height="20" viewBox="0 0 20 20" fill="none" xmlns="http://www.w3.org/2000/svg">
<path d="M15.2802 9.67069C16.147 9.49993 16.9771 9.07301 17.6486 8.40215C18.8327 7.21899 19.2356 5.54792 18.8694 4.03543L16.5621 6.34076L13.8153 5.70649L13.2293 3.01083L15.5732 0.668904C14.035 0.254187 12.3137 0.656707 11.1051 1.86426C9.81108 3.1572 9.44484 5.03563 10.0064 6.6579L1.59514 15.062C0.801621 15.8548 0.801621 17.1234 1.59514 17.9162C2.38865 18.7091 3.65828 18.7091 4.45179 17.9162L6.63701 15.6475" stroke="white" stroke-linecap="round" stroke-linejoin="round"/>
<path d="M11.8499 18.7183C14.6749 18.7183 16.965 16.4301 16.965 13.6075C16.965 10.785 14.6749 8.49683 11.8499 8.49683C9.02496 8.49683 6.73486 10.785 6.73486 13.6075C6.73486 16.4301 9.02496 18.7183 11.8499 18.7183Z" stroke="white" stroke-width="1.25" stroke-linecap="round" stroke-linejoin="round"/>
<path d="M9.78662 13.7325L11.6666 15.4157L14.2791 12.4273" stroke="white" stroke-width="1.25" stroke-linecap="round" stroke-linejoin="round"/>
</svg>
