<svg width="34" height="34" viewBox="0 0 34 34" fill="none" xmlns="http://www.w3.org/2000/svg">
<circle cx="17" cy="17" r="4.25" stroke="white" stroke-width="1.5"/>
<path d="M19.5009 3.04905C18.9802 2.83337 18.3201 2.83337 16.9999 2.83337C15.6798 2.83337 15.0197 2.83337 14.499 3.04905C13.8048 3.33661 13.2532 3.88819 12.9656 4.58244C12.8343 4.89936 12.783 5.26792 12.7629 5.80553C12.7333 6.59559 12.3282 7.32689 11.6435 7.72219C10.9588 8.11749 10.1229 8.10272 9.4239 7.73328C8.94826 7.48188 8.60338 7.34209 8.26328 7.29731C7.51827 7.19923 6.7648 7.40112 6.16864 7.85857C5.72151 8.20166 5.39147 8.77331 4.73139 9.91661C4.0713 11.0599 3.74126 11.6316 3.6677 12.1903C3.56962 12.9353 3.77151 13.6888 4.22896 14.285C4.43776 14.5571 4.73121 14.7858 5.18664 15.072C5.85617 15.4927 6.28697 16.2093 6.28693 17.0001C6.28688 17.7907 5.8561 18.5073 5.18664 18.9279C4.73113 19.2141 4.43764 19.4429 4.22882 19.715C3.77137 20.3112 3.56948 21.0646 3.66756 21.8097C3.74112 22.3684 4.07117 22.9401 4.73125 24.0834C5.39133 25.2267 5.72138 25.7983 6.1685 26.1414C6.76466 26.5989 7.51813 26.8008 8.26315 26.7027C8.60323 26.6579 8.94808 26.5181 9.42368 26.2667C10.1227 25.8973 10.9587 25.8825 11.6434 26.2778C12.3281 26.6732 12.7333 27.4045 12.7629 28.1946C12.783 28.7322 12.8344 29.1007 12.9656 29.4176C13.2532 30.1119 13.8048 30.6635 14.499 30.951C15.0197 31.1667 15.6798 31.1667 16.9999 31.1667C18.3201 31.1667 18.9802 31.1667 19.5009 30.951C20.1951 30.6635 20.7467 30.1119 21.0343 29.4176C21.1655 29.1007 21.2169 28.7321 21.237 28.1945C21.2666 27.4045 21.6717 26.6732 22.3563 26.2778C23.0411 25.8825 23.8771 25.8972 24.5761 26.2667C25.0517 26.518 25.3965 26.6578 25.7366 26.7026C26.4816 26.8007 27.2351 26.5988 27.8312 26.1413C28.2784 25.7982 28.6084 25.2266 29.2685 24.0833C29.9286 22.94 30.2586 22.3683 30.3322 21.8096C30.4303 21.0645 30.2284 20.3111 29.7709 19.7149C29.5621 19.4428 29.2686 19.214 28.8132 18.9278C28.1437 18.5072 27.7129 17.7906 27.713 16.9999C27.713 16.2093 28.1437 15.4928 28.8132 15.0722C29.2687 14.786 29.5622 14.5572 29.7711 14.2851C30.2285 13.6889 30.4304 12.9354 30.3323 12.1904C30.2588 11.6317 29.9287 11.06 29.2686 9.91671C28.6085 8.77341 28.2785 8.20176 27.8314 7.85867C27.2352 7.40122 26.4818 7.19933 25.7367 7.29741C25.3967 7.34218 25.0518 7.48196 24.5762 7.73334C23.8772 8.1028 23.0412 8.11757 22.3565 7.72224C21.6718 7.32691 21.2666 6.59556 21.237 5.80545C21.2169 5.26788 21.1655 4.89934 21.0343 4.58244C20.7467 3.88819 20.1951 3.33661 19.5009 3.04905Z" stroke="white" stroke-width="1.5"/>
</svg>
