<svg width="18" height="25" viewBox="0 0 18 25" fill="none" xmlns="http://www.w3.org/2000/svg">
<path d="M8.26742 0.208313C8.46903 0.420983 8.4204 0.874975 8.4204 0.874975C8.28047 3.33214 7.48887 5.58873 6.04028 7.02393C5.42301 7.63584 4.71502 8.14141 4.03727 8.68136C3.91571 8.77814 3.73071 8.90867 3.62694 9.0131C3.61508 9.02456 3.59137 9.02774 3.59789 9.05321C5.02573 10.1694 6.49626 11.206 7.40111 12.8322C9.19481 16.0573 8.65344 21.5351 5.34355 23.6007C4.38356 24.2534 2.83238 24.4979 2.83238 24.4979C2.12558 24.6144 2.31058 23.907 2.31058 23.907C2.31058 23.907 2.41791 23.4969 2.5365 23.0257C2.65509 22.5539 3.11404 22.4266 3.11404 22.4266C4.60829 22.0554 5.55583 21.0977 6.07526 19.6542C6.28517 19.071 6.42036 18.4285 6.4512 17.8077C5.11586 17.3741 3.73308 16.9755 2.52049 16.2477C0.510365 15.0392 -0.354758 13.3295 0.133245 10.952C0.274368 10.2649 0.557802 9.61545 0.947967 9.03857C0.440989 8.3095 0.134431 7.44163 0.0389646 6.55402C-0.325111 3.16723 2.17124 1.72565 4.93086 0.76864C5.45621 0.586534 6.78088 0.210223 7.31928 0.0784187C7.85769 -0.0533856 8.04684 -0.0247325 8.26801 0.208313H8.26742ZM2.35209 7.55243C2.51337 7.43909 2.69067 7.26398 2.85136 7.13664C3.69039 6.47125 4.58398 5.84725 5.24868 4.99275C5.84401 4.22675 6.21757 3.32832 6.367 2.36494C5.27773 2.72151 4.09716 3.07235 3.15317 3.74602C2.11491 4.48718 1.77455 5.29774 1.98683 6.58395C2.04375 6.92906 2.16353 7.2538 2.3088 7.56898C2.33489 7.57598 2.33726 7.56198 2.35209 7.55179V7.55243ZM1.98683 11.504C1.75795 12.8934 2.1997 13.7269 3.34173 14.4642C4.25904 15.0564 5.33703 15.3862 6.3664 15.7237C6.25671 15.0264 6.03257 14.3445 5.68154 13.7345C4.97414 12.5043 3.82974 11.7243 2.74759 10.8654C2.62129 10.7654 2.47898 10.6234 2.35149 10.5362C2.33726 10.5266 2.33489 10.5113 2.3088 10.519C2.16116 10.8323 2.04375 11.1595 1.98683 11.504Z" fill="white"/>
<path d="M10.6807 0.0793013C11.2191 0.211104 12.5432 0.586774 13.0692 0.769515C15.8288 1.72652 18.3251 3.16807 17.961 6.55547C17.8656 7.44243 17.559 8.31093 17.052 9.03999C17.4422 9.6175 17.7256 10.267 17.8668 10.9534C18.3548 13.3309 17.4897 15.0405 15.4795 16.2478C14.2675 16.9755 12.8848 17.3741 11.5488 17.8077C11.5802 18.4279 11.7154 19.071 11.9248 19.6543C12.4442 21.0977 13.3917 22.0554 14.886 22.4266C14.886 22.4266 15.3449 22.5539 15.4635 23.0257C15.5821 23.4975 15.6894 23.907 15.6894 23.907C15.6894 23.907 15.8744 24.6144 15.1676 24.4979C15.1676 24.4979 13.6159 24.2533 12.6565 23.6007C9.34658 21.5352 8.80521 16.0574 10.5989 12.8323C11.5038 11.2055 12.9743 10.1695 14.4021 9.05336C14.4086 9.02789 14.3843 9.0247 14.3731 9.01324C14.2693 8.90818 14.0843 8.77829 13.9627 8.68151C13.2856 8.1422 12.5776 7.636 11.9597 7.0241C10.5111 5.58955 9.71955 3.33235 9.57961 0.875212C9.57961 0.875212 9.53099 0.421225 9.73259 0.208557C9.95377 -0.0244855 10.1388 -0.053775 10.6813 0.0786645L10.6807 0.0793013ZM15.6906 7.57042C15.8359 7.25523 15.9557 6.9305 16.0126 6.5854C16.2249 5.29857 15.8845 4.48801 14.8463 3.7475C13.9029 3.07384 12.7217 2.723 11.6324 2.36643C11.7819 3.3298 12.1554 4.22823 12.7507 4.99421C13.4154 5.84934 14.309 6.47333 15.1481 7.13808C15.3088 7.26542 15.486 7.44052 15.6473 7.55386C15.6622 7.56405 15.6645 7.57806 15.6906 7.57105V7.57042ZM15.6906 10.5197C15.6639 10.5121 15.6622 10.5274 15.6479 10.5369C15.5204 10.6235 15.3781 10.7655 15.2518 10.8661C14.1697 11.7244 13.0253 12.5044 12.3179 13.7352C11.9669 14.3458 11.7427 15.0278 11.633 15.7244C12.6624 15.3875 13.7404 15.0577 14.6577 14.4649C15.7997 13.7276 16.2421 12.8941 16.0126 11.5048C15.9557 11.1603 15.8383 10.833 15.6906 10.5197Z" fill="white"/>
</svg>
