<svg width="18" height="17" viewBox="0 0 18 17" fill="none" xmlns="http://www.w3.org/2000/svg">
<path d="M1.77305 9.22942C1.48847 7.25163 1.34618 6.26273 1.75152 5.41723C2.15687 4.57172 3.01964 4.05777 4.74518 3.02987L5.78381 2.41117C7.35078 1.47773 8.13427 1.01102 9 1.01102C9.86573 1.01102 10.6492 1.47773 12.2162 2.41117L13.2548 3.02987C14.9804 4.05777 15.8431 4.57172 16.2485 5.41723C16.6538 6.26273 16.5115 7.25163 16.2269 9.22942L16.0179 10.6824C15.6523 13.223 15.4695 14.4933 14.5882 15.2522C13.7069 16.011 12.4145 16.011 9.82956 16.011H8.17044C5.58553 16.011 4.29307 16.011 3.41177 15.2522C2.53047 14.4933 2.34769 13.223 1.98213 10.6824L1.77305 9.22942Z" stroke="white" stroke-width="1.25"/>
</svg>
