<svg width="18" height="18" viewBox="0 0 18 18" fill="none" xmlns="http://www.w3.org/2000/svg">
<path fill-rule="evenodd" clip-rule="evenodd" d="M6.03624 1.8662C6.24821 2.09331 6.23593 2.44925 6.00882 2.66122L2.79454 5.66122C2.68045 5.7677 2.52725 5.822 2.37157 5.81114C2.21589 5.80027 2.07172 5.72522 1.97353 5.60393L1.06282 4.47893C0.867352 4.23747 0.904636 3.88327 1.14609 3.6878C1.38755 3.49234 1.74175 3.52962 1.93722 3.77108L2.46817 4.42696L5.24121 1.83878C5.46832 1.62681 5.82427 1.63909 6.03624 1.8662ZM8.43752 3.75C8.43752 3.43934 8.68936 3.1875 9.00002 3.1875H16.5C16.8107 3.1875 17.0625 3.43934 17.0625 3.75C17.0625 4.06066 16.8107 4.3125 16.5 4.3125H9.00002C8.68936 4.3125 8.43752 4.06066 8.43752 3.75ZM6.03624 7.1162C6.24821 7.34331 6.23593 7.69925 6.00882 7.91122L2.79454 10.9112C2.68045 11.0177 2.52725 11.072 2.37157 11.0611C2.21589 11.0503 2.07172 10.9752 1.97353 10.8539L1.06282 9.72893C0.867352 9.48747 0.904636 9.13327 1.14609 8.9378C1.38755 8.74233 1.74175 8.77962 1.93722 9.02108L2.46817 9.67696L5.24121 7.08878C5.46832 6.87681 5.82427 6.88909 6.03624 7.1162ZM8.43752 9C8.43752 8.68934 8.68936 8.4375 9.00002 8.4375H16.5C16.8107 8.4375 17.0625 8.68934 17.0625 9C17.0625 9.31066 16.8107 9.5625 16.5 9.5625H9.00002C8.68936 9.5625 8.43752 9.31066 8.43752 9ZM6.03624 12.3662C6.24821 12.5933 6.23593 12.9493 6.00882 13.1612L2.79454 16.1612C2.68045 16.2677 2.52725 16.322 2.37157 16.3111C2.21589 16.3003 2.07172 16.2252 1.97353 16.1039L1.06282 14.9789C0.867352 14.7375 0.904636 14.3833 1.14609 14.1878C1.38755 13.9923 1.74175 14.0296 1.93722 14.2711L2.46817 14.927L5.24121 12.3388C5.46832 12.1268 5.82427 12.1391 6.03624 12.3662ZM8.43752 14.25C8.43752 13.9393 8.68936 13.6875 9.00002 13.6875H16.5C16.8107 13.6875 17.0625 13.9393 17.0625 14.25C17.0625 14.5607 16.8107 14.8125 16.5 14.8125H9.00002C8.68936 14.8125 8.43752 14.5607 8.43752 14.25Z" fill="white"/>
</svg>
