<svg width="18" height="18" viewBox="0 0 18 18" fill="none" xmlns="http://www.w3.org/2000/svg">
<g clip-path="url(#clip0_7451_2221)">
<path d="M11.6833 2.53648L13.1833 3.32364C14.797 4.1705 15.6039 4.59393 16.052 5.35481C16.5 6.11569 16.5 7.0625 16.5 8.95613V9.04387C16.5 10.9375 16.5 11.8843 16.052 12.6452C15.6039 13.4061 14.797 13.8295 13.1833 14.6764L11.6833 15.4635C10.3666 16.1545 9.7082 16.5 9 16.5C8.2918 16.5 7.63344 16.1545 6.31672 15.4635L4.81672 14.6764C3.20297 13.8295 2.3961 13.4061 1.94805 12.6452C1.5 11.8843 1.5 10.9375 1.5 9.04387V8.95613C1.5 7.0625 1.5 6.11569 1.94805 5.35481C2.3961 4.59393 3.20297 4.1705 4.81672 3.32364L6.31672 2.53647C7.63344 1.84549 8.2918 1.5 9 1.5C9.7082 1.5 10.3666 1.84549 11.6833 2.53648Z" stroke="white" stroke-width="1.25" stroke-linecap="round"/>
<path d="M15.75 5.625L9 9M9 9L2.25 5.625M9 9V16.125" stroke="white" stroke-width="1.25" stroke-linecap="round"/>
</g>
<defs>
<clipPath id="clip0_7451_2221">
<rect width="18" height="18" fill="white"/>
</clipPath>
</defs>
</svg>
