<svg width="18" height="18" viewBox="0 0 18 18" fill="none" xmlns="http://www.w3.org/2000/svg">
<circle cx="9" cy="9" r="2.25" stroke="white" stroke-width="1.25"/>
<path d="M10.3239 1.61418C10.0482 1.5 9.69878 1.5 8.99987 1.5C8.30096 1.5 7.9515 1.5 7.67584 1.61418C7.3083 1.76642 7.01629 2.05843 6.86405 2.42597C6.79455 2.59376 6.76736 2.78888 6.75671 3.07349C6.74107 3.49176 6.52657 3.87892 6.16409 4.0882C5.80161 4.29747 5.35907 4.28965 4.98902 4.09407C4.73721 3.96098 4.55463 3.88697 4.37458 3.86326C3.98016 3.81134 3.58126 3.91822 3.26565 4.1604C3.02894 4.34203 2.85421 4.64467 2.50475 5.24995C2.1553 5.85522 1.98057 6.15786 1.94162 6.45368C1.8897 6.8481 1.99658 7.24699 2.23876 7.56261C2.3493 7.70667 2.50466 7.82777 2.74577 7.97927C3.10023 8.20199 3.3283 8.58139 3.32827 9.00002C3.32825 9.41859 3.10019 9.79795 2.74577 10.0206C2.50461 10.1722 2.34924 10.2933 2.23869 10.4373C1.99651 10.753 1.88962 11.1518 1.94155 11.5463C1.98049 11.8421 2.15522 12.1447 2.50468 12.75C2.85413 13.3553 3.02886 13.6579 3.26557 13.8395C3.58119 14.0817 3.98008 14.1886 4.37451 14.1367C4.55455 14.113 4.73712 14.039 4.98891 13.9059C5.35898 13.7103 5.80155 13.7025 6.16405 13.9118C6.52656 14.1211 6.74107 14.5083 6.75671 14.9265C6.76736 15.2111 6.79456 15.4063 6.86405 15.574C7.01629 15.9416 7.3083 16.2336 7.67584 16.3858C7.9515 16.5 8.30096 16.5 8.99987 16.5C9.69878 16.5 10.0482 16.5 10.3239 16.3858C10.6914 16.2336 10.9834 15.9416 11.1357 15.574C11.2052 15.4062 11.2324 15.2111 11.243 14.9265C11.2587 14.5082 11.4731 14.1211 11.8356 13.9118C12.1981 13.7025 12.6407 13.7103 13.0108 13.9059C13.2626 14.0389 13.4451 14.1129 13.6252 14.1366C14.0196 14.1886 14.4185 14.0817 14.7341 13.8395C14.9708 13.6579 15.1455 13.3552 15.495 12.7499C15.8444 12.1447 16.0192 11.842 16.0581 11.5462C16.11 11.1518 16.0032 10.7529 15.761 10.4373C15.6504 10.2932 15.4951 10.1721 15.2539 10.0206C14.8995 9.7979 14.6714 9.41852 14.6715 8.99993C14.6715 8.58139 14.8995 8.20206 15.2539 7.97939C15.4951 7.82786 15.6505 7.70674 15.7611 7.56266C16.0032 7.24705 16.1101 6.84815 16.0582 6.45373C16.0192 6.15791 15.8445 5.85528 15.4951 5.25C15.1456 4.64472 14.9709 4.34209 14.7342 4.16045C14.4185 3.91827 14.0197 3.81139 13.6252 3.86331C13.4452 3.88702 13.2626 3.96102 13.0108 4.0941C12.6408 4.28969 12.1982 4.29751 11.8357 4.08822C11.4732 3.87893 11.2587 3.49175 11.243 3.07345C11.2324 2.78886 11.2052 2.59375 11.1357 2.42597C10.9834 2.05843 10.6914 1.76642 10.3239 1.61418Z" stroke="white" stroke-width="1.25"/>
</svg>
