<svg width="17" height="17" viewBox="0 0 17 17" fill="none" xmlns="http://www.w3.org/2000/svg">
<path d="M6.36487 3.55628C7.31486 1.85209 7.78985 1 8.5 1C9.21015 1 9.68514 1.85209 10.6351 3.55628L10.8809 3.99717C11.1509 4.48145 11.2858 4.72359 11.4963 4.88336C11.7068 5.04312 11.9689 5.10243 12.4931 5.22104L12.9703 5.32902C14.8151 5.74642 15.7375 5.95511 15.9569 6.6608C16.1764 7.36648 15.5476 8.1018 14.2899 9.57244L13.9646 9.95292C13.6072 10.3708 13.4285 10.5798 13.3481 10.8383C13.2677 11.0968 13.2947 11.3756 13.3488 11.9332L13.398 12.4408C13.5881 14.4029 13.6832 15.384 13.1086 15.8202C12.5341 16.2563 11.6705 15.8587 9.94324 15.0634L9.49639 14.8576C9.00556 14.6316 8.76014 14.5186 8.5 14.5186C8.23986 14.5186 7.99444 14.6316 7.50361 14.8576L7.05676 15.0634C5.32951 15.8587 4.46588 16.2563 3.89136 15.8202C3.31684 15.384 3.41191 14.4029 3.60205 12.4408L3.65124 11.9332C3.70527 11.3756 3.73228 11.0968 3.6519 10.8383C3.57151 10.5798 3.39282 10.3708 3.03544 9.95292L2.71007 9.57244C1.45244 8.1018 0.823618 7.36648 1.04307 6.6608C1.26251 5.95511 2.18489 5.74642 4.02965 5.32902L4.50691 5.22104C5.03114 5.10243 5.29325 5.04312 5.50371 4.88336C5.71417 4.72359 5.84914 4.48145 6.1191 3.99718L6.36487 3.55628Z" stroke="#18181B" stroke-width="1.25"/>
</svg>
