<svg width="20" height="20" viewBox="0 0 20 20" fill="none" xmlns="http://www.w3.org/2000/svg">
<path d="M15.2802 10.1598C16.147 9.98906 16.9771 9.56215 17.6486 8.89128C18.8327 7.70812 19.2356 6.03706 18.8694 4.52456L16.5621 6.8299L13.8153 6.19563L13.2293 3.49997L15.5732 1.15804C14.035 0.743323 12.3137 1.14584 11.1051 2.3534C9.81108 3.64634 9.44484 5.52476 10.0064 7.14703L1.59514 15.5511C0.801621 16.344 0.801621 17.6125 1.59514 18.4054C2.38865 19.1982 3.65828 19.1982 4.45179 18.4054L6.63701 16.1366" stroke="#18181B" stroke-linecap="round" stroke-linejoin="round"/>
<path d="M11.8498 19.2074C14.6748 19.2074 16.9649 16.9193 16.9649 14.0967C16.9649 11.2741 14.6748 8.98596 11.8498 8.98596C9.02484 8.98596 6.73474 11.2741 6.73474 14.0967C6.73474 16.9193 9.02484 19.2074 11.8498 19.2074Z" stroke="#18181B" stroke-width="1.25" stroke-linecap="round" stroke-linejoin="round"/>
<path d="M9.78667 14.2216L11.6667 15.9049L14.2792 12.9165" stroke="#18181B" stroke-width="1.25" stroke-linecap="round" stroke-linejoin="round"/>
</svg>
