<svg width="17" height="17" viewBox="0 0 17 17" fill="none" xmlns="http://www.w3.org/2000/svg">
<path d="M1.27305 9.2184C0.988471 7.24061 0.846179 6.25172 1.25152 5.40621C1.65687 4.5607 2.51964 4.04675 4.24518 3.01886L5.28381 2.40015C6.85078 1.46672 7.63427 1 8.5 1C9.36573 1 10.1492 1.46672 11.7162 2.40015L12.7548 3.01886C14.4804 4.04675 15.3431 4.5607 15.7485 5.40621C16.1538 6.25172 16.0115 7.24061 15.7269 9.2184L15.5179 10.6714C15.1523 13.212 14.9695 14.4823 14.0882 15.2411C13.2069 16 11.9145 16 9.32956 16H7.67044C5.08553 16 3.79307 16 2.91177 15.2411C2.03047 14.4823 1.84769 13.212 1.48213 10.6714L1.27305 9.2184Z" stroke="#18181B" stroke-width="1.25"/>
</svg>
