<svg width="18" height="18" viewBox="0 0 18 18" fill="none" xmlns="http://www.w3.org/2000/svg">
<g clip-path="url(#clip0_7198_3888)">
<path d="M1.5 9C1.5 5.46447 1.5 3.6967 2.59835 2.59835C3.6967 1.5 5.46447 1.5 9 1.5C12.5355 1.5 14.3033 1.5 15.4017 2.59835C16.5 3.6967 16.5 5.46447 16.5 9C16.5 12.5355 16.5 14.3033 15.4017 15.4017C14.3033 16.5 12.5355 16.5 9 16.5C5.46447 16.5 3.6967 16.5 2.59835 15.4017C1.5 14.3033 1.5 12.5355 1.5 9Z" stroke="#18181B" stroke-width="1.25"/>
<path d="M5.25 13.5L5.25 11.25" stroke="#18181B" stroke-width="1.25" stroke-linecap="round"/>
<path d="M9 13.5V9" stroke="#18181B" stroke-width="1.25" stroke-linecap="round"/>
<path d="M12.75 13.5V6.75" stroke="#18181B" stroke-width="1.25" stroke-linecap="round"/>
</g>
<defs>
<clipPath id="clip0_7198_3888">
<rect width="18" height="18" fill="white"/>
</clipPath>
</defs>
</svg>
